<?xml version="1.0" encoding="UTF-8" standalone="no"?>
<!-- Created with Inkscape (http://www.inkscape.org/) -->

<svg
   version="1.1"
   id="svg2"
   width="300.00003"
   height="63.111481"
   viewBox="0 0 300.00003 63.111481"
   xmlns="http://www.w3.org/2000/svg"
   xmlns:svg="http://www.w3.org/2000/svg">
  <defs
     id="defs6" />
  <g
     id="g8"
     transform="translate(-5.3813771,-102.22605)">
    <path
       style="fill:#df0000;fill-opacity:1;stroke-width:0.122726"
       d="m 291.67887,161.82553 v -3.51201 l -140.79805,-0.031 C 20.13209,158.2538 7.0187821,158.12015 6.3824787,158.12711 l 1.6729494,-6.32159 142.8511819,-0.2425 h 140.77226 v -2.94544 c 0,-1.61999 0.0304,-2.94544 0.0676,-2.94544 0.0371,0 3.16059,2.21823 6.94101,4.92938 6.52084,4.67649 6.8621,4.93994 6.65176,5.13514 -0.12195,0.11317 -3.06592,2.18491 -6.54214,4.60388 -3.47623,2.41897 -6.49991,4.53287 -6.71928,4.69756 l -0.39887,0.29943 z M 9.4742749,146.50056 c 0.279788,-1.08639 6.6834501,-27.91038 6.6834501,-27.99598 0,-0.0442 2.49902,-0.0659 5.553378,-0.0483 l 5.553377,0.0319 -0.04652,0.30682 c -0.110042,0.72585 -0.348387,0.67222 3.145361,0.70771 1.771865,0.018 3.221573,0.0792 3.221573,0.13602 0,0.0568 -0.303571,1.36754 -0.6746,2.91272 -0.37103,1.54518 -0.674778,2.85084 -0.674996,2.90147 -2.46e-4,0.0506 -1.484969,0.0921 -3.299445,0.0921 h -3.299048 l -0.13265,0.5268 c -0.07296,0.28974 -1.213602,5.05306 -2.534763,10.58516 -1.321162,5.5321 -2.431513,10.15502 -2.467447,10.27314 -0.06097,0.20042 -0.437002,0.21477 -5.629473,0.21477 H 9.3083364 Z m 26.8630521,0.47209 c -3.092258,-0.58861 -3.890988,-2.21727 -3.17829,-6.48075 0.141109,-0.84415 4.593745,-19.71057 5.098922,-21.60482 l 0.122737,-0.46023 h 4.794735 c 4.51619,0 4.789919,0.0125 4.711811,0.21477 -0.255084,0.66066 -5.220577,21.78719 -5.220577,22.21184 0,0.64344 0.313278,0.89144 1.126071,0.89144 0.791202,0 1.180344,-0.20546 1.472031,-0.77722 0.176859,-0.34667 5.501851,-22.11671 5.501851,-22.49309 0,-0.0263 2.157572,-0.0477 4.794608,-0.0477 4.50937,0 4.790718,0.0128 4.729252,0.21478 -0.03594,0.11812 -1.560956,6.48303 -3.388911,14.14424 -1.827957,7.6612 -3.352345,14.02611 -3.387531,14.14423 -0.0595,0.19978 -0.39769,0.21478 -4.84204,0.21478 -2.627936,0 -4.778066,-0.0194 -4.778066,-0.0431 0,-0.0237 0.05066,-0.20317 0.11258,-0.39887 0.06192,-0.19569 0.144934,-0.50418 0.184475,-0.68552 l 0.07189,-0.32972 -1.012879,0.47018 c -0.557084,0.25859 -1.427082,0.56582 -1.933329,0.68272 -1.212962,0.28009 -3.836125,0.34965 -4.979345,0.13204 z m 22.463983,-0.16527 c 0.04233,-0.18564 1.583699,-6.63338 3.425262,-14.32833 l 3.348297,-13.99084 4.787502,-0.032 4.787504,-0.032 -0.205808,0.82981 c -0.113195,0.45639 -1.661333,6.91858 -3.440308,14.36042 l -3.234502,13.5306 H 63.4968 58.724343 Z m 12.272214,0 c 0.04209,-0.18564 1.582647,-6.63338 3.423465,-14.32833 l 3.346941,-13.99084 4.785371,-0.032 4.785369,-0.032 -0.263758,1.07526 c -0.145067,0.59139 -1.692454,7.05358 -3.43864,14.36042 l -3.174882,13.28515 h -4.770196 -4.770193 z m 12.215636,0.27771 c 0,-0.0329 1.518741,-6.41231 3.37498,-14.1765 1.856239,-7.76419 3.374981,-14.19885 3.374981,-14.29922 0,-0.15842 0.632015,-0.18252 4.786337,-0.18252 2.632483,0 4.788135,0.0415 4.790327,0.0921 0.002,0.0506 -1.528871,6.51218 -3.402368,14.35902 l -3.406365,14.26696 h -4.758946 c -2.617421,0 -4.758946,-0.0269 -4.758946,-0.0598 z m 21.66124,-0.0252 c -2.2463,-0.14906 -4.45177,-0.66634 -5.17567,-1.21394 -0.89717,-0.67865 -1.31725,-2.38472 -1.034409,-4.20103 0.109233,-0.70145 5.217759,-22.34376 5.488059,-23.25021 0.0603,-0.20234 0.36878,-0.21414 4.81141,-0.18408 3.42971,0.0232 4.73984,0.0703 4.72142,0.16996 -0.0522,0.28219 -1.39353,5.88412 -1.45928,6.0945 -0.0633,0.20267 0.0384,0.2162 1.3832,0.18409 l 1.45157,-0.0346 0.26582,-1.04318 c 0.1462,-0.57374 0.49883,-2.02345 0.78362,-3.22157 l 0.51782,-2.1784 h 4.70115 c 2.58562,0 4.72435,0.0414 4.75271,0.0921 0.0284,0.0506 -0.56401,2.6601 -1.3164,5.79883 l -1.36796,5.70679 -6.222,0.0318 -6.22198,0.0318 -0.0656,0.27501 c -0.0361,0.15126 -0.61689,2.58126 -1.29069,5.40001 -0.6738,2.81875 -1.22509,5.33682 -1.22509,5.59572 0,0.6447 0.29605,0.88949 1.08308,0.89559 0.79169,0.006 1.30792,-0.29487 1.60603,-0.93642 0.12613,-0.27147 0.6082,-2.10851 1.07124,-4.0823 l 0.8419,-3.58873 4.75565,-9.8e-4 c 2.61562,-6.1e-4 4.75567,0.0468 4.75567,0.10524 0,0.37708 -1.90338,7.92562 -2.16562,8.58851 -1.38071,3.49032 -3.14005,4.50823 -8.51398,4.92597 -1.41975,0.11036 -5.51332,0.13378 -6.93167,0.0397 z m 32.7618,-0.12981 c 0.0394,-0.11813 2.49362,-6.59349 5.45373,-14.3897 l 5.38204,-14.17491 4.50414,-0.0323 4.50413,-0.0322 -0.0867,0.27767 c -0.0477,0.1527 -0.99047,3.07772 -2.0951,6.50004 -1.10462,3.42232 -2.00841,6.28031 -2.00841,6.35111 0,0.15126 3.38785,0.18372 3.4808,0.0333 0.0324,-0.0525 0.51635,-3.03471 1.07543,-6.62724 l 1.0165,-6.53188 h 4.50816 4.50814 l -0.0574,0.39886 c -0.0686,0.47729 -2.62716,27.99867 -2.62716,28.2602 0,0.15768 -0.71356,0.18169 -5.39997,0.18169 -4.30224,0 -5.39997,-0.0319 -5.39997,-0.1569 0,-0.18636 1.32395,-8.73943 1.41474,-9.13965 l 0.0627,-0.27613 h -2.21734 -2.21734 l -0.15498,0.36859 c -0.0852,0.20273 -0.78672,2.35542 -1.55883,4.78377 l -1.40387,4.41517 -5.37756,0.003 c -5.06762,0.002 -5.37342,-0.01 -5.30584,-0.2122 z m 31.65059,-0.0614 c 0.0379,-0.15188 1.56561,-6.54439 3.3949,-14.2056 1.82929,-7.66121 3.35435,-14.02611 3.389,-14.14423 0.0586,-0.19981 0.397,-0.21478 4.85422,-0.21478 4.08913,0 4.7814,0.0255 4.72431,0.17432 -0.0368,0.0958 -1.59975,6.58505 -3.47324,14.42038 l -3.40631,14.24605 h -4.7759 -4.77589 z m 31.49842,0.13598 c -1.16002,-0.11959 -2.77247,-0.50313 -3.35978,-0.79917 -1.09015,-0.54949 -1.49212,-1.43443 -1.46869,-3.23338 0.0174,-1.33329 0.21893,-2.35558 1.573,-7.97723 1.2781,-5.30628 3.6292,-15.14509 3.79783,-15.89309 l 0.13832,-0.61363 4.8029,-0.0321 4.8029,-0.032 -0.16839,0.64572 c -0.48288,1.85184 -5.20902,21.75604 -5.20902,21.93788 0,0.35481 0.47708,0.84643 0.89508,0.92236 0.21645,0.0393 0.86298,0.088 1.43672,0.1081 0.94761,0.0332 1.03963,0.058 1.00448,0.27056 -0.0212,0.12869 -0.25565,1.14521 -0.52083,2.25897 -0.26516,1.11374 -0.51113,2.14924 -0.54658,2.30111 l -0.0645,0.27614 -3.03515,-0.0163 c -1.66933,-0.009 -3.50457,-0.0647 -4.07832,-0.12385 z m 16.87491,0.005 c -2.33314,-0.19161 -4.21739,-0.70837 -4.80417,-1.31756 -0.82982,-0.86151 -1.13406,-2.79222 -0.74015,-4.69698 0.26537,-1.28318 5.37226,-22.60931 5.4411,-22.72174 0.0779,-0.12715 9.4918,-0.11677 9.4918,0.0105 0,0.0564 -0.33136,1.47835 -0.73636,3.15993 -0.405,1.68156 -0.73636,3.10069 -0.73636,3.15362 0,0.053 0.64267,0.0806 1.42815,0.0616 l 1.42815,-0.0346 0.76314,-3.19089 0.76314,-3.19089 4.74277,-0.0321 c 3.94388,-0.0267 4.74275,-0.004 4.74275,0.13559 0,0.0923 -0.60749,2.69908 -1.34999,5.79297 -0.74249,3.09388 -1.34999,5.64183 -1.34999,5.66211 0,0.0202 -2.80212,0.0512 -6.22693,0.0686 l -6.22693,0.0318 -1.13465,4.72498 c -1.68106,7.00038 -1.67402,6.95436 -1.11082,7.25577 0.36232,0.19391 1.42179,0.15116 1.76091,-0.071 0.60472,-0.39622 0.66818,-0.58841 1.8962,-5.7427 l 0.63596,-2.6693 h 4.78185 c 4.49752,0 4.77793,0.0128 4.71576,0.21477 -0.0364,0.11812 -0.37301,1.5126 -0.7481,3.09884 -1.1846,5.00965 -1.46153,5.86021 -2.33811,7.18083 -1.13321,1.70726 -2.27524,2.35674 -4.9565,2.81885 -2.33963,0.40321 -7.12945,0.54358 -10.13262,0.29695 z m 25.79401,0.01 c -2.60354,-0.23349 -4.23833,-0.70927 -4.85657,-1.4134 -0.52537,-0.59837 -0.68255,-1.26101 -0.66851,-2.81827 0.0134,-1.47949 0.23451,-2.69252 1.24187,-6.81133 l 0.58532,-2.39316 4.75298,-0.0322 c 2.61415,-0.0177 4.75299,0.0127 4.75299,0.0675 0,0.0548 -0.3901,1.72605 -0.8669,3.71392 -0.86272,3.59691 -0.94067,4.21137 -0.57189,4.50826 0.47922,0.38579 1.7179,0.24358 2.17776,-0.25003 0.13698,-0.14703 0.33197,-0.54535 0.43329,-0.88516 0.34493,-1.15677 1.77317,-7.28643 1.77317,-7.60999 0,-0.52279 -0.31854,-0.9894 -0.94594,-1.38564 -0.63068,-0.39831 -1.32775,-0.71127 -4.02448,-1.80687 -3.46417,-1.40739 -4.7879,-2.34968 -5.09415,-3.62622 -0.23771,-0.99091 -0.0867,-2.38459 0.5447,-5.02766 0.31445,-1.31623 0.60061,-2.48981 0.63592,-2.60793 0.0597,-0.19979 0.3986,-0.21478 4.85538,-0.21478 4.51275,0 4.78639,0.0125 4.70845,0.21478 -0.0455,0.11812 -0.28022,1.05982 -0.52158,2.09265 -0.73589,3.1491 -0.63055,3.27566 4.62219,5.55249 2.69278,1.1672 3.27742,1.47294 3.94827,2.06479 0.96284,0.84943 1.29247,1.91202 1.08957,3.5123 -0.11861,0.93545 -1.4921,6.83383 -2.02939,8.71514 -0.17351,0.6075 -0.61168,1.71204 -0.9737,2.45454 -1.26476,2.59388 -2.39527,3.30797 -6.04009,3.81519 -1.584,0.22045 -7.74473,0.33102 -9.52866,0.17102 z m -56.2283,-23.22216 c 0.22263,-0.89518 0.6101,-2.49743 0.86104,-3.56055 l 0.45624,-1.93294 h 4.52561 c 2.48908,0 4.52329,0.0415 4.52046,0.0921 -0.003,0.0506 -0.3778,1.63839 -0.83327,3.52839 l -0.8281,3.43634 -4.55339,0.0322 -4.55338,0.0321 z m 67.55797,-1.04466 c 0,-0.0506 0.22776,-1.04471 0.50749,-2.20907 l 0.5086,-2.11704 h 4.78287 c 3.77344,0 4.77145,0.0323 4.72863,0.15341 -0.0299,0.0843 -0.27047,1.07816 -0.53472,2.2084 l -0.48045,2.055 -4.75566,7.4e-4 c -2.61561,3.6e-4 -4.75616,-0.0408 -4.75676,-0.0914 z M 16.648632,116.6153 c 0,-0.0992 3.104188,-13.11142 3.322681,-13.92813 l 0.123123,-0.46023 h 8.845897 8.845896 l -0.07261,0.27614 c -0.03993,0.15188 -0.360865,1.47732 -0.713183,2.94543 l -0.640578,2.66931 H 33.13872 c -2.443074,0 -3.244697,0.0371 -3.318672,0.15341 -0.05364,0.0844 -0.541358,2.00351 -1.083809,4.26474 l -0.986274,4.11134 -5.550669,0.0319 c -3.052868,0.0176 -5.550669,-0.0112 -5.550669,-0.064 z m 22.525384,-1.59411 c 0.221822,-0.92812 0.556015,-2.33641 0.742652,-3.12953 l 0.339336,-1.44204 h 4.764402 c 2.62042,0 4.7644,0.0237 4.7644,0.0528 0,0.0691 -1.203054,5.15007 -1.36056,5.74609 l -0.12162,0.46022 h -4.765961 -4.765963 z m 12.088069,1.53552 c 0.0025,-0.0852 0.321664,-1.48029 0.709233,-3.10028 l 0.704673,-2.94544 4.7521,-0.0321 c 3.761616,-0.0254 4.751501,1.5e-4 4.749227,0.12272 -0.0016,0.0851 -0.321145,1.4803 -0.71015,3.10029 l -0.707282,2.94544 -4.751181,0.0321 c -3.761581,0.0254 -4.750231,-1.2e-4 -4.74662,-0.12273 z m 14.773375,-0.0628 c 0.103211,-0.32942 1.421125,-5.84762 1.421576,-5.95224 2.18e-4,-0.0506 2.154248,-0.0921 4.786732,-0.0921 2.632485,0 4.785682,0.0415 4.78488,0.0921 -8.59e-4,0.0506 -0.08298,0.3958 -0.182633,0.76705 -0.232375,0.86573 -0.229289,0.93693 0.03068,0.70801 0.534865,-0.47098 2.272229,-1.19177 3.651116,-1.51476 1.193941,-0.27965 3.455328,-0.2792 4.412915,9.1e-4 1.022553,0.2991 1.836571,0.73539 2.481924,1.33026 l 0.552277,0.50907 0.571871,-0.34006 c 2.256927,-1.34208 4.743098,-1.9214 7.199107,-1.6775 2.236504,0.22208 3.291846,0.7903 3.988614,2.14757 0.415851,0.81006 0.429441,0.88018 0.426061,2.19911 -0.002,0.7493 -0.0443,1.51424 -0.0943,1.69986 l -0.09087,0.3375 h -4.66128 c -3.160801,0 -4.661267,-0.0413 -4.661267,-0.12831 0,-0.0705 -0.135558,-0.26386 -0.301239,-0.42954 -0.508595,-0.50859 -1.90702,-0.32407 -2.298842,0.30333 -0.156392,0.25042 -0.23541,0.25452 -4.915763,0.25452 -3.22727,0 -4.756814,-0.0413 -4.756814,-0.12831 0,-0.0705 -0.135557,-0.26386 -0.301238,-0.42954 -0.508595,-0.50859 -1.90702,-0.32407 -2.298842,0.30333 -0.156457,0.25053 -0.234583,0.25452 -4.985395,0.25452 -4.540434,0 -4.822461,-0.0127 -4.759161,-0.21478 z m 38.60812,0.17569 c 0,-0.23305 0.48211,-1.54326 0.80049,-2.17548 1.0589,-2.10271 2.56893,-3.20414 5.10172,-3.72127 2.09084,-0.4269 6.03515,-0.61725 9.11193,-0.43973 4.48631,0.25884 6.34838,1.03364 6.89608,2.86945 0.1834,0.61474 0.24358,2.42399 0.10386,3.1226 l -0.0767,0.38352 h -4.81534 -4.81534 l 0.0538,-0.28152 c 0.0318,-0.16588 -0.0466,-0.40535 -0.19073,-0.58295 -0.21369,-0.2634 -0.33819,-0.29974 -0.98648,-0.28801 -0.8555,0.0155 -1.25607,0.22462 -1.48396,0.77479 l -0.15644,0.37769 H 109.415 c -2.6243,0 -4.77145,-0.0176 -4.77145,-0.0391 z m 44.55235,0.008 c 9.9e-4,-0.0169 1.23869,-3.26146 2.74947,-7.21019 l 2.74687,-7.17951 7.37547,-0.0316 c 6.36874,-0.0273 7.37547,-0.007 7.37547,0.14595 0,0.34951 -1.3583,14.23255 -1.39621,14.27046 -0.0213,0.0213 -2.02591,0.0242 -4.45472,0.007 l -4.416,-0.0322 0.46977,-2.51589 c 0.25836,-1.38375 0.45186,-2.59874 0.43001,-2.69999 -0.0218,-0.10125 -0.44137,1.04471 -0.93222,2.54658 l -0.89247,2.73066 h -4.52901 c -2.49097,0 -4.52787,-0.0138 -4.52643,-0.0306 z m 27.41533,-0.18409 c 0.0528,-0.17054 1.0814,-4.42977 1.36343,-5.64542 l 0.0641,-0.27614 h 4.784 c 2.6312,0 4.78334,0.0138 4.78253,0.0307 -9.9e-4,0.0169 -0.0795,0.32384 -0.17486,0.68214 -0.0953,0.35831 -0.13614,0.63412 -0.0906,0.61293 0.0455,-0.0212 0.37348,-0.19139 0.72872,-0.3782 1.77454,-0.93319 4.00912,-1.38425 5.8924,-1.18942 1.56469,0.16188 2.40437,0.49938 3.15968,1.26998 0.89534,0.91347 1.1778,2.11103 0.98447,4.17406 l -0.0875,0.93415 h -4.53042 c -3.06978,0 -4.53042,-0.0414 -4.53042,-0.12831 0,-0.0705 -0.13555,-0.26386 -0.30123,-0.42954 -0.5086,-0.50859 -1.90702,-0.32407 -2.29885,0.30334 -0.15645,0.25053 -0.23458,0.25451 -4.98539,0.25451 -4.54011,0 -4.82251,-0.0127 -4.76,-0.21477 z m 41.43168,0.0499 c 0,-0.30365 0.47572,-1.55182 0.88192,-2.31392 1.4026,-2.63157 3.65871,-3.63002 8.81347,-3.90045 4.59437,-0.24102 8.63756,0.13666 10.51436,0.98219 1.46818,0.66142 2.04821,2.07984 1.82492,4.46263 l -0.0876,0.93442 h -4.83723 -4.83723 v -0.41451 c 0,-0.49954 -0.20576,-0.69241 -0.82359,-0.772 -0.71719,-0.0923 -1.39571,0.19051 -1.74256,0.72649 l -0.29768,0.46002 h -4.70441 c -3.85624,0 -4.70441,-0.0298 -4.70441,-0.16487 z m 25.8953,-0.01 c 0,-0.31705 0.81183,-2.10602 1.26668,-2.79126 1.49303,-2.24936 3.34799,-3.04196 7.98631,-3.41246 2.94914,-0.23558 7.24486,-0.11823 9.15599,0.25013 2.80116,0.5399 3.56076,1.40101 3.55773,4.0332 -10e-4,0.64587 -0.0356,1.38141 -0.0774,1.63453 l -0.0761,0.46023 h -4.77028 -4.77028 v -0.34473 c 0,-0.552 -0.25604,-0.78507 -0.93403,-0.85021 -0.83274,-0.0801 -1.41869,0.18025 -1.6892,0.75029 l -0.211,0.44465 h -4.71921 c -3.99616,0 -4.71922,-0.0267 -4.71922,-0.17437 z m -41.8124,-0.37644 0.0699,-0.431 H 201.058 c -0.62576,0 -1.16589,-0.0282 -1.20029,-0.0626 -0.0344,-0.0344 0.21532,-1.21997 0.55495,-2.63458 l 0.61751,-2.57202 1.23179,-0.0347 1.23181,-0.0347 0.9762,-4.08066 0.97617,-4.08066 h 4.76429 c 2.62037,1e-5 4.7643,0.0198 4.7643,0.0441 0,0.0715 -1.83922,7.72852 -1.91291,7.96376 -0.062,0.19802 0.077,0.21477 1.78192,0.21477 1.40038,0 1.84786,0.0372 1.84377,0.15341 -0.003,0.0843 -0.27127,1.25795 -0.59623,2.60794 l -0.59088,2.45454 -1.88798,0.0614 -1.88798,0.0614 -0.0635,0.36818 -0.0635,0.36817 -4.77077,0.0321 -4.77076,0.0321 0.0699,-0.43099 z m -90.91638,-10.67916 3.06816,-2.99807 4.82638,0.0266 4.82637,0.0266 1.58203,2.88408 c 0.87012,1.58624 1.58386,2.92549 1.58609,2.97611 0.002,0.0506 -1.61133,0.0912 -3.5857,0.09 l -3.58975,-0.002 -0.79772,-1.2232 c -0.43875,-0.67276 -0.82534,-1.22308 -0.85909,-1.22293 -0.0337,1.4e-4 -0.69147,0.55149 -1.4616,1.22523 l -1.40023,1.22497 -3.63155,-0.005 -3.63156,-0.005 z"
       id="path448" />
  </g>
</svg>
