<?xml version="1.0" encoding="UTF-8" standalone="no"?>
<!-- Created with Inkscape (http://www.inkscape.org/) -->

<svg
   version="1.1"
   id="svg2"
   width="250.00006"
   height="55.596619"
   viewBox="0 0 250.00006 55.596619"
   sodipodi:docname="logo-transparente.svg"
   inkscape:version="1.2.1 (9c6d41e410, 2022-07-14)"
   xmlns:inkscape="http://www.inkscape.org/namespaces/inkscape"
   xmlns:sodipodi="http://sodipodi.sourceforge.net/DTD/sodipodi-0.dtd"
   xmlns="http://www.w3.org/2000/svg"
   xmlns:svg="http://www.w3.org/2000/svg">
  <defs
     id="defs6" />
  <sodipodi:namedview
     id="namedview4"
     pagecolor="#505050"
     bordercolor="#eeeeee"
     borderopacity="1"
     inkscape:pageshadow="0"
     inkscape:pageopacity="0"
     inkscape:pagecheckerboard="0"
     showgrid="false"
     inkscape:zoom="2"
     inkscape:cx="52.5"
     inkscape:cy="-15.5"
     inkscape:window-width="1440"
     inkscape:window-height="831"
     inkscape:window-x="0"
     inkscape:window-y="0"
     inkscape:window-maximized="1"
     inkscape:current-layer="g8"
     inkscape:showpageshadow="0"
     inkscape:deskcolor="#505050" />
  <g
     inkscape:groupmode="layer"
     inkscape:label="Image"
     id="g8"
     transform="translate(-14.627288,-38.865333)">
    <path
       style="fill:#ffffff;stroke-width:0.108136;opacity:0.65"
       d="M 252.44634,91.372726 V 88.283481 C 173.1732,88.343838 93.900291,88.23363 14.627288,88.078779 l 1.632095,-5.765194 125.872087,0.0224 110.2608,-0.05407 0.0541,-2.59728 0.0541,-2.597281 6.05028,4.338495 c 3.32766,2.386173 6.06209,4.382189 6.07653,4.435592 0.0144,0.0534 -2.37274,1.765455 -5.30484,3.804558 -2.93208,2.039103 -5.67868,3.952372 -6.10355,4.251706 l -0.77249,0.544248 z M 17.561743,78.256244 c 0.06943,-0.180937 6.007048,-24.955512 6.007048,-25.064278 0,-0.09492 9.717974,-0.0551 9.77679,0.04006 0.03152,0.05101 0.01346,0.245651 -0.04014,0.432544 l -0.09746,0.339803 h 2.858056 c 2.413716,0 2.858054,0.02418 2.858054,0.155509 0,0.08553 -0.267636,1.280742 -0.594748,2.656026 -0.327111,1.375284 -0.594747,2.521835 -0.594747,2.54789 0,0.02605 -1.309151,0.04737 -2.909225,0.04737 h -2.909223 l -0.391383,1.649074 c -0.215261,0.906991 -1.235309,5.17701 -2.266774,9.488932 l -1.87539,7.83986 -4.946708,0.02813 c -4.671481,0.02657 -4.942671,0.01761 -4.874158,-0.160927 z m 23.911662,0.07924 c -1.763122,-0.318258 -2.645714,-0.960135 -2.993271,-2.176903 -0.169255,-0.592548 -0.169479,-2.271313 -4.32e-4,-3.338546 0.07065,-0.446061 1.141349,-5.044543 2.379333,-10.21885 l 2.250881,-9.40783 4.245108,-0.0283 c 3.721984,-0.02481 4.237496,-0.0085 4.183346,0.132647 -0.212563,0.5539 -4.612208,19.268628 -4.612208,19.618855 0,0.533328 0.283755,0.768566 0.92708,0.768566 0.721984,0 1.109529,-0.189655 1.349755,-0.660538 0.171915,-0.336981 1.511958,-5.813358 4.806299,-19.641992 0.05796,-0.243306 0.05796,-0.243306 4.280491,-0.243306 3.970339,0 4.219242,0.0113 4.167478,0.189238 -0.03028,0.104081 -1.349525,5.614961 -2.931656,12.2464 -1.582131,6.631439 -2.925025,12.239641 -2.984209,12.462672 l -0.107608,0.40551 h -4.213135 c -2.317224,0 -4.212558,-0.01217 -4.211852,-0.02703 7.57e-4,-0.01487 0.07312,-0.294671 0.160921,-0.621782 0.0878,-0.327112 0.160214,-0.59798 0.16092,-0.601932 7.57e-4,-0.0039 -0.342333,0.156485 -0.762308,0.356524 -1.236788,0.589094 -2.215469,0.795344 -3.994392,0.841792 -0.862384,0.02252 -1.807628,-0.0023 -2.100541,-0.05519 z m 19.61857,0.04773 c 0,-0.03294 1.338183,-5.658626 2.97374,-12.501525 1.635556,-6.842899 2.973739,-12.509307 2.973739,-12.592019 0,-0.125892 0.697566,-0.150386 4.282941,-0.150386 4.035098,0 4.278657,0.01095 4.208919,0.189238 -0.06682,0.170819 -5.641317,23.374983 -5.910058,24.600936 l -0.112596,0.513646 h -4.208342 c -2.314589,0 -4.208343,-0.02695 -4.208343,-0.05989 z M 71.96473,78.091662 c 0.04199,-0.193293 1.384036,-5.819317 2.982331,-12.502274 1.598295,-6.682958 2.905991,-12.218168 2.905991,-12.300467 0,-0.124888 0.70326,-0.149637 4.252023,-0.149637 h 4.252023 l -2.735949,11.435383 c -1.504772,6.289459 -2.865422,11.982818 -3.023667,12.65191 l -0.287718,1.21653 h -4.210687 -4.210688 z m 10.774241,0.162204 c 0.02476,-0.104081 1.380786,-5.796887 3.013385,-12.650679 l 2.968362,-12.461441 4.229465,-0.0012 4.229468,-0.0012 -0.403931,1.649074 c -0.222155,0.90699 -1.587079,6.600349 -3.033171,12.651909 L 91.113313,78.443103 H 86.90363 c -3.954283,0 -4.206951,-0.01148 -4.164659,-0.189237 z m 19.066189,0.125152 C 98.501689,78.055572 97.329592,77.67603 96.740046,76.738869 96.352768,76.12324 96.197506,75.301585 96.266691,74.2338 c 0.04447,-0.686392 0.674401,-3.501324 2.397905,-10.715361 1.285683,-5.381424 2.386324,-9.966886 2.445884,-10.189917 l 0.10828,-0.40551 h 4.14104 c 2.27757,0 4.16518,0.02414 4.19468,0.05364 0.0295,0.0295 -0.24669,1.306856 -0.61375,2.838569 l -0.66739,2.784933 1.19037,0.03074 c 0.65471,0.01691 1.22764,-0.0074 1.27316,-0.05407 0.0623,-0.06383 1.39528,-5.430886 1.39528,-5.61793 0,-0.07633 8.31651,-0.03135 8.36384,0.04524 0.0276,0.04462 -0.49289,2.343858 -1.1566,5.109424 l -1.20674,5.028304 -5.43608,0.02804 c -5.43609,0.02804 -5.43609,0.02804 -5.542,0.27034 -0.19614,0.448731 -2.26704,9.321756 -2.26729,9.714477 0,0.545024 0.26024,0.746678 0.96482,0.746678 0.68948,0 1.13068,-0.235185 1.36414,-0.72717 0.0935,-0.197008 0.51988,-1.81713 0.94754,-3.600272 l 0.77756,-3.242077 h 4.19067 c 2.73423,0 4.19067,0.03775 4.19067,0.108624 0,0.260841 -1.55797,6.57935 -1.79181,7.26686 -0.5786,1.701176 -1.6858,3.126363 -2.85804,3.678864 -1.49304,0.703712 -3.30716,0.951878 -7.29918,0.998513 -1.72477,0.02015 -3.33059,0.01758 -3.56849,-0.0057 z m 28.86422,-0.125152 c 0.0333,-0.104081 2.19392,-5.809606 4.80137,-12.678944 l 4.74082,-12.489706 3.96494,-0.02837 c 2.1807,-0.0156 3.96492,-0.0045 3.96492,0.02464 0,0.02915 -0.79672,2.52364 -1.7705,5.543301 -0.97378,3.01966 -1.8043,5.59978 -1.8456,5.733598 -0.0751,0.243306 -0.0751,0.243306 1.50016,0.243306 1.02906,0 1.57526,-0.03941 1.57526,-0.113653 0,-0.06251 0.38929,-2.617753 0.86509,-5.67832 0.4758,-3.060567 0.86509,-5.612797 0.86509,-5.671622 0,-0.06859 1.43565,-0.106955 4.00231,-0.106955 h 4.0023 l -0.0583,0.40551 c -0.0555,0.386136 -2.32324,24.69714 -2.32324,24.9063 0,0.05993 -1.93076,0.100146 -4.80866,0.100146 -3.80061,0 -4.79852,-0.02834 -4.76033,-0.13517 0.0776,-0.217017 1.24252,-7.755392 1.24252,-8.040487 0,-0.25895 0,-0.25895 -1.8979,-0.25895 h -1.8979 l -0.14187,0.351442 c -0.078,0.193293 -0.69597,2.09011 -1.37321,4.215149 l -1.23135,3.863707 -4.73824,0.0022 c -4.46413,0.002 -4.73473,-0.0088 -4.67768,-0.187084 z m 27.85311,0.126509 c 0,-0.07063 5.78863,-24.312251 5.95629,-24.943717 l 0.10766,-0.40551 h 4.22042 c 3.96986,0 4.21691,0.01124 4.16136,0.189238 -0.0678,0.217075 -5.7456,23.929658 -5.91645,24.709072 l -0.1126,0.513646 h -4.20834 c -2.31459,0 -4.20834,-0.02823 -4.20834,-0.06273 z m 28.11535,-0.01333 c -1.6135,-0.126924 -3.24357,-0.6053 -3.8365,-1.125895 -0.67876,-0.595961 -0.92528,-1.775177 -0.7119,-3.405365 0.0692,-0.528925 1.16961,-5.328776 2.44528,-10.666337 1.27566,-5.337561 2.31939,-9.777895 2.31939,-9.867408 0,-0.142172 0.54157,-0.162752 4.28295,-0.162752 4.03495,0 4.27868,0.01096 4.2093,0.189238 -0.11896,0.305741 -4.70749,19.543102 -4.70749,19.736126 0,0.09673 0.11738,0.3124 0.26086,0.479272 0.2509,0.291816 0.30769,0.305469 1.48687,0.357472 1.22601,0.05407 1.22601,0.05407 1.1885,0.324408 -0.0367,0.264129 -0.83343,3.653094 -0.94702,4.028066 -0.0528,0.174362 -0.27138,0.187753 -2.78048,0.170345 -1.49773,-0.01039 -2.94212,-0.03612 -3.20976,-0.05717 z m 14.43615,-0.04574 c -2.16656,-0.206096 -3.61866,-0.628457 -4.16571,-1.211653 -0.62084,-0.66187 -0.701,-0.957364 -0.69431,-2.559436 l 0.006,-1.459836 2.40328,-9.991291 c 1.3218,-5.49521 2.42897,-10.032865 2.46037,-10.08368 0.0757,-0.1224 8.37081,-0.120163 8.37081,0.0023 0,0.05206 -0.29197,1.319306 -0.64882,2.81611 -0.35684,1.496804 -0.64881,2.743734 -0.64881,2.770956 0,0.02722 0.55867,0.0495 1.2415,0.0495 1.24151,0 1.24151,0 1.31745,-0.297374 0.0418,-0.163555 0.34824,-1.440912 0.68106,-2.838569 l 0.60513,-2.541196 h 4.21415 c 3.45654,0 4.20874,0.02594 4.18406,0.144307 -0.0647,0.310582 -2.3101,9.707322 -2.36186,9.884318 -0.0513,0.175225 -0.43398,0.19019 -5.53105,0.216272 l -5.47595,0.02802 -1.05501,4.379507 c -1.21787,5.055543 -1.2937,5.442767 -1.14781,5.861255 0.12548,0.35995 0.4225,0.457603 1.17262,0.385527 0.60655,-0.05828 0.90955,-0.278676 1.1394,-0.828781 0.12175,-0.2914 0.80115,-3.018981 1.61215,-6.472327 0.0571,-0.243306 0.0571,-0.243306 4.27966,-0.243306 3.97026,0 4.21926,0.01131 4.16773,0.189238 -0.0302,0.104081 -0.37688,1.543564 -0.77049,3.198851 -0.8819,3.70864 -1.04327,4.244113 -1.58375,5.255611 -1.22285,2.288511 -2.68437,2.999587 -6.90522,3.35961 -1.47166,0.125526 -5.48642,0.117407 -6.86664,-0.01389 z m 22.65449,0.002 c -2.18012,-0.191086 -3.54315,-0.603784 -4.10405,-1.242615 -0.56312,-0.641358 -0.75412,-1.848778 -0.55425,-3.503721 0.11083,-0.91772 1.43289,-6.79659 1.58309,-7.039619 0.0815,-0.131778 8.37388,-0.128447 8.37388,0.0034 0,0.0554 -0.34382,1.542629 -0.76405,3.304962 -0.80237,3.364955 -0.83796,3.726799 -0.39009,3.966488 0.30461,0.163022 1.04608,0.160211 1.4461,-0.0055 0.1736,-0.07191 0.39935,-0.272457 0.50167,-0.445662 0.17104,-0.289557 1.59008,-5.945152 1.75659,-7.000904 0.17792,-1.128086 -0.48382,-1.582306 -4.76701,-3.272097 -2.3883,-0.942226 -3.76995,-1.949504 -4.04962,-2.952344 -0.27803,-0.996961 0.0102,-2.941616 0.9768,-6.590895 l 0.10742,-0.40551 h 4.2247 c 3.33506,0 4.21389,0.02847 4.17335,0.13517 -0.0282,0.07434 -0.23488,0.904638 -0.4592,1.845098 -0.67327,2.822792 -0.61996,2.889976 3.83963,4.839077 2.55597,1.117105 3.20365,1.460639 3.79283,2.011742 1.18551,1.108921 1.20072,2.007604 0.11125,6.57829 -0.95489,4.006076 -1.27091,5.04144 -1.95728,6.412475 -1.00805,2.01362 -1.89959,2.636015 -4.43393,3.095382 -2.01007,0.364342 -6.75858,0.499007 -9.40783,0.266802 z M 174.20307,58.520357 c 0.10765,-0.43191 0.4485,-1.843672 0.75747,-3.137248 l 0.56176,-2.351958 h 3.9898 c 3.12413,0 3.98801,0.02933 3.98158,0.13517 -0.005,0.07434 -0.33316,1.473353 -0.7303,3.10891 l -0.72207,2.973739 -4.01699,0.02834 -4.01697,0.02834 z m 59.69019,-1.595074 c 0,-0.0588 0.19873,-0.934695 0.44161,-1.946447 l 0.4416,-1.839549 h 4.22086 c 4.22086,0 4.22086,0 4.15602,0.243306 -0.0357,0.133818 -0.24667,1.00972 -0.46891,1.946448 l -0.40408,1.703141 h -4.19355 c -2.69126,0 -4.19355,-0.03829 -4.19355,-0.106899 z M 24.00617,51.490214 c 0.0027,-0.07434 0.676063,-2.933189 1.496452,-6.352989 l 1.491615,-6.217819 7.803243,-0.02775 c 4.291783,-0.01526 7.803243,-0.0094 7.803243,0.01313 0,0.115716 -1.209766,5.096395 -1.256071,5.171317 -0.02988,0.04834 -1.338687,0.0879 -2.908463,0.0879 H 35.58205 l -0.09581,0.351442 c -0.05269,0.193293 -0.456436,1.872027 -0.897204,3.73052 l -0.801396,3.379079 -4.893153,2.16e-4 c -3.845099,1.08e-4 -4.892116,-0.02878 -4.888317,-0.134999 z M 43.619534,51.05767 c 0.07382,-0.312243 0.370507,-1.553103 0.659304,-2.757468 l 0.525089,-2.189753 h 4.19706 c 2.308385,0 4.196747,0.0365 4.196362,0.0811 -7.57e-4,0.08817 -1.01893,4.367489 -1.19638,5.028323 l -0.108888,0.40551 H 47.6887 43.485318 Z m 10.927471,0.163483 c 0.03892,-0.223734 0.324455,-1.453005 0.634518,-2.731713 l 0.563753,-2.324923 4.187253,-0.0283 c 3.938634,-0.02662 4.186972,-0.01699 4.182502,0.162204 -0.0026,0.10478 -0.28402,1.334046 -0.625349,2.731703 l -0.620598,2.541196 -4.196423,0.02831 -4.196422,0.02831 z m 12.967136,0.214993 c 0.07488,-0.249841 1.255489,-5.210709 1.255489,-5.275508 0,-0.0276 1.897786,-0.05019 4.217303,-0.05019 2.319517,0 4.216726,0.0365 4.21602,0.0811 -7.57e-4,0.04461 -0.07191,0.346475 -0.158222,0.670821 -0.08631,0.324345 -0.146564,0.599767 -0.133886,0.612047 0.01268,0.01228 0.503998,-0.214071 1.091822,-0.502999 3.054783,-1.501499 6.588746,-1.343845 8.426179,0.375899 0.226341,0.211844 0.424845,0.385169 0.441121,0.385169 0.01627,0 0.415022,-0.22016 0.886104,-0.489245 2.704002,-1.544543 6.738964,-1.759364 8.556935,-0.455572 0.994116,0.71295 1.400188,1.84209 1.287348,3.579648 -0.03811,0.586773 -0.09587,1.109881 -0.128368,1.162462 -0.03255,0.05266 -1.903031,0.0956 -4.164544,0.0956 -4.105465,0 -4.105465,0 -4.205748,-0.263766 -0.05515,-0.14507 -0.196736,-0.315385 -0.314622,-0.378476 -0.504701,-0.270107 -1.592821,-0.02698 -1.870706,0.417986 -0.137802,0.220655 -0.207391,0.224256 -4.334019,0.224256 -4.193968,0 -4.193968,0 -4.294251,-0.263766 -0.05516,-0.14507 -0.196736,-0.315385 -0.314622,-0.378476 -0.504701,-0.270107 -1.592821,-0.02698 -1.870706,0.417986 -0.137856,0.220741 -0.206695,0.224256 -4.392697,0.224256 -3.999656,0 -4.249272,-0.01126 -4.19593,-0.189238 z m 34.020689,0.09803 c 0,-0.05016 0.0988,-0.378627 0.21964,-0.729917 0.63611,-1.849792 1.65881,-3.119639 3.03535,-3.768916 0.98854,-0.466262 1.75524,-0.667849 3.28723,-0.864317 2.76291,-0.35432 7.18771,-0.302834 9.35815,0.10889 2.73297,0.518435 3.56578,1.396107 3.56263,3.754518 -0.002,1.793777 0.55388,1.59099 -4.36361,1.590703 l -4.23173,-2.16e-4 -0.0114,-0.321238 c -0.006,-0.17668 -0.072,-0.394257 -0.14603,-0.483504 -0.20646,-0.248761 -0.78892,-0.311498 -1.37131,-0.147703 -0.42828,0.120455 -0.566,0.222543 -0.74215,0.550128 l -0.21627,0.402226 -4.19027,3.24e-4 c -2.30465,1.09e-4 -4.19026,-0.04075 -4.19026,-0.09091 z m 39.25355,0.06417 c 1e-4,-0.01487 1.08814,-2.873714 2.41788,-6.352989 l 2.41768,-6.325955 6.50334,-0.02788 c 6.42477,-0.02754 6.50334,-0.02528 6.50334,0.186826 0,0.220698 -1.02155,10.961405 -1.13935,11.979317 l -0.0657,0.567714 h -3.94647 c -3.70732,0 -3.94316,-0.01147 -3.89171,-0.189238 0.13088,-0.452234 0.83461,-4.486942 0.79033,-4.531221 -0.0269,-0.02693 -0.39656,1.024156 -0.82138,2.335747 l -0.77243,2.384712 h -3.99786 c -2.19883,0 -3.99778,-0.01217 -3.99767,-0.02703 z m 24.15627,-0.162204 c 0.0552,-0.184061 1.25553,-5.202244 1.25545,-5.248474 -2e-5,-0.01273 1.89776,-0.0099 4.2173,0.0063 2.31954,0.01623 4.21677,0.04056 4.21606,0.05407 -0.001,0.01351 -0.0688,0.278187 -0.15132,0.588165 l -0.15005,0.563598 0.71905,-0.36051 c 1.57268,-0.788508 3.52607,-1.232618 4.8282,-1.097715 2.13846,0.221546 3.19869,0.785875 3.75425,1.99828 0.25488,0.556239 0.36811,1.886961 0.25245,2.96699 l -0.077,0.718491 h -3.99509 c -3.99511,0 -3.99511,0 -4.09539,-0.263765 -0.0551,-0.145071 -0.19674,-0.315386 -0.31463,-0.378476 -0.5047,-0.270108 -1.59282,-0.02698 -1.87071,0.417985 -0.13785,0.220741 -0.20669,0.224256 -4.39268,0.224256 -3.99966,0 -4.24928,-0.01126 -4.19594,-0.189238 z m 36.5608,-0.27034 c 0.71794,-2.357756 2.1127,-3.923234 4.02036,-4.512448 3.11383,-0.961765 10.70177,-0.963691 13.25063,-0.0034 0.86858,0.327254 1.24897,0.600729 1.59538,1.146972 0.49293,0.777263 0.66301,1.965002 0.47636,3.326712 l -0.0688,0.501705 h -4.25668 -4.25667 l -0.002,-0.297374 c -0.001,-0.163556 -0.0384,-0.355157 -0.0833,-0.425779 -0.14454,-0.227317 -0.70199,-0.372028 -1.15375,-0.299504 -0.56009,0.08991 -0.87712,0.29391 -1.08674,0.699267 l -0.16723,0.32339 h -4.20394 -4.20395 l 0.13995,-0.459578 z m 22.73555,0.395373 c -0.0877,-0.08772 0.5908,-1.674272 1.02568,-2.398312 0.47759,-0.795135 1.37931,-1.665866 2.15124,-2.077301 0.76684,-0.408721 2.25232,-0.799276 3.77971,-0.993746 1.55212,-0.197617 7.27927,-0.194725 8.58905,0.0043 1.36475,0.207419 2.58023,0.609047 3.02497,0.99953 0.5666,0.497485 0.83888,1.332906 0.84191,2.583249 0.001,0.56501 -0.0331,1.234663 -0.0766,1.488116 l -0.0791,0.460824 -4.23462,-0.02828 c -3.58029,-0.02391 -4.22955,-0.05188 -4.20174,-0.181 0.0181,-0.084 -0.0238,-0.289616 -0.0931,-0.456934 -0.31265,-0.754802 -1.93543,-0.454716 -2.27347,0.420416 -0.094,0.243306 -0.094,0.243306 -4.24189,0.243306 -2.28133,0 -4.17677,-0.02889 -4.21209,-0.06421 z m -36.8741,-0.107866 c -0.0365,-0.03654 -0.0209,-0.186256 0.0348,-0.332699 0.0557,-0.146444 0.10124,-0.287424 0.10124,-0.31329 0,-0.02586 -0.45417,-0.04703 -1.00927,-0.04703 -0.5551,0 -1.03688,-0.02761 -1.07063,-0.06136 -0.0337,-0.03375 -0.0215,-0.216227 0.0273,-0.40551 0.0488,-0.189282 0.29343,-1.206251 0.5437,-2.259931 l 0.45504,-1.915783 1.08746,-0.03067 1.08745,-0.03066 0.45425,-1.89238 c 0.24983,-1.040809 0.63625,-2.658793 0.85871,-3.595521 l 0.40447,-1.703142 h 4.20384 c 2.31211,0 4.2022,0.0365 4.2002,0.0811 -0.002,0.04461 -0.38277,1.662591 -0.84615,3.595521 l -0.84249,3.51442 1.60309,0.02985 c 1.17665,0.02191 1.60281,0.06506 1.60204,0.162204 -0.001,0.07279 -0.23441,1.105576 -0.51963,2.295072 l -0.51857,2.16272 -1.64072,0.02984 -1.64074,0.02984 -0.0903,0.348638 -0.0903,0.348638 -4.16414,0.02829 c -2.29028,0.01556 -4.19405,-0.0016 -4.23059,-0.03815 z m -80.0468,-9.725736 2.7034,-2.642158 4.25773,0.02513 4.25773,0.02513 1.39055,2.541196 c 0.7648,1.397657 1.39136,2.577691 1.39237,2.622297 0.001,0.04461 -1.42625,0.0811 -3.17169,0.0811 h -3.17351 l -0.72672,-1.09148 c -0.66214,-0.99449 -0.74287,-1.077323 -0.90861,-0.932167 -0.10005,0.08762 -0.66341,0.578788 -1.25191,1.09148 l -1.07002,0.932167 -3.20136,-0.0053 -3.20136,-0.0053 z"
       id="path165"
       sodipodi:nodetypes="ccccccccsssscccssscssssscsscsscssscscsssssssscscscsscsssssscsssssscsscccssssccsccsssssssscssscssssscsscssscssssssssscssssssssscsssssscsscssssscssscssssssssssssssssssscsssssssscsssscsssssssssssssssssssssssscssssssssssscssscccssscssscsssscsssscssccsssscssscccssscscscccsssscsssssssssssssssssssscsssscccsssccsssscssccsssscssssscsccssscssssssscsssscsccssscccccsssssssscsssssssssssssscccsscscscscscccccssccccscscsssccccssscccc" />
  </g>
</svg>
